<svg width="58" height="55" viewBox="0 0 58 55" fill="none" xmlns="http://www.w3.org/2000/svg">
<path d="M13.6179 0.344063C10.6467 1.04316 6.58319 4.10174 4.52958 7.07293C0.990371 12.3162 -0.844774 20.9676 0.378656 27.041C1.20884 31.2794 2.82552 34.2505 6.01517 37.4402C8.81158 40.2366 9.16113 40.4114 19.167 44.7808C24.8472 47.2276 29.741 49.2375 30.0468 49.2375C30.4838 49.2375 37.7369 46.1353 47.5244 41.7222C49.4469 40.892 50.1897 40.324 49.8839 40.0181C49.578 39.7123 48.7915 39.8434 47.3059 40.4114C46.1262 40.892 42.8054 41.897 39.9216 42.6835C34.1104 44.2564 31.7946 45.2614 30.7896 46.7033L30.1342 47.6646L28.9982 46.4411C27.6 44.9119 26.0707 44.3001 19.036 42.4213C11.7828 40.5425 9.3796 39.3627 6.62689 36.4352C2.86921 32.4591 1.25253 28.3082 1.25253 22.5406C1.25253 13.8018 5.53454 5.41256 11.5206 2.44137C14.5792 0.955776 20.2594 0.912083 23.0121 2.39767C25.7648 3.88327 28.6923 6.72337 29.9157 9.12654C31.0081 11.2675 31.8383 11.8356 31.8383 10.4374C31.8383 9.34501 29.6536 6.06796 27.6437 4.14543C24.1481 0.824696 18.2932 -0.748287 13.6179 0.344063Z" fill="#F2EFE7"/>
<path d="M11.3026 7.11666C8.7684 9.38874 6.14677 13.5397 5.84091 15.7681C5.62244 17.1663 5.75352 18.1712 6.36524 19.5694C7.10803 21.2298 7.15173 21.6667 6.67109 22.8028C5.97199 24.4194 5.8846 27.3469 6.54001 29.0073C7.15173 30.6677 8.98687 32.5465 11.0842 33.6389C13.6184 34.9497 19.386 34.906 22.4883 33.5515C26.0275 32.0222 27.5568 30.056 30.7027 23.0649C34.5041 14.7194 36.8199 11.6171 40.796 9.60721C49.3163 5.23782 58.0114 13.8455 56.2637 24.8564C55.2587 31.192 53.511 32.8961 48.0055 33.0271C44.6411 33.1145 44.51 33.0708 44.2479 32.0222C43.942 30.6677 43.1992 30.5366 42.8933 31.76C42.4127 33.5078 41.9758 32.5465 41.6699 29.2258C41.1019 22.9339 39.9659 23.2834 39.4852 29.8812C39.1794 33.901 38.6113 34.8623 38.3055 31.8037C38.1307 29.7938 37.2131 29.5753 36.7325 31.4105L36.383 32.8524L32.7127 33.0708C30.2221 33.2019 28.9987 33.4641 28.8676 33.8573C28.7365 34.338 29.6104 34.4253 33.1059 34.2943C38.0433 34.1632 37.6064 33.8136 38.1744 37.9646C38.655 41.1105 39.5289 40.6736 39.8785 37.0907C40.0532 35.474 40.3154 33.5515 40.4465 32.8524C40.7086 31.7163 40.796 31.9348 41.1893 34.3817C41.7136 37.5276 42.2816 38.0082 42.8496 35.7362L43.2429 34.2943L47.2627 34.469C51.5447 34.6875 53.4236 34.1632 55.0839 32.328C57.8367 29.2695 58.8416 21.8852 57.2249 16.5545C55.5209 10.918 50.7146 6.85449 45.7771 6.85449C41.801 6.85449 39.4415 7.94684 36.2082 11.1802C33.237 14.1951 31.1397 17.6906 28.3433 24.5068C25.6779 30.8861 21.7455 33.4641 15.4099 32.9398C10.6472 32.5902 7.80714 30.0123 7.80714 26.1235C7.80714 23.1086 8.15669 22.8028 10.6472 23.6766C13.0067 24.4631 14.4923 24.2884 17.2013 22.8902C19.6045 21.7104 23.0126 18.7829 23.7554 17.2973C25.1536 14.6757 24.236 11.6608 22.2261 12.3162C21.1775 12.6658 21.1338 13.3212 22.0513 14.632C22.6631 15.5496 22.6631 15.7244 22.0513 16.6419C20.1725 19.5694 14.4486 22.8465 12.1765 22.3658C9.68597 21.8415 7.3702 19.0888 7.3702 16.8167C7.41389 15.0689 8.94318 12.3599 11.4337 9.6509L13.8369 7.07296L15.2351 7.85945C16.7207 8.77703 17.8567 8.34009 17.8567 6.85449C17.8567 5.89323 17.0266 5.54367 14.7545 5.54367C13.4 5.54367 12.7009 5.89323 11.3026 7.11666Z" fill="#F2EFE7"/>
<path d="M8.24414 41.46C8.28783 42.2028 25.5032 49.7619 27.6879 49.9803C28.9551 50.1114 26.5082 48.8443 19.0365 45.5673C13.3126 42.9893 8.55 40.9357 8.41892 40.9357C8.33153 40.9357 8.24414 41.1979 8.24414 41.46Z" fill="#F2EFE7"/>
<path d="M49.5345 41.8097C48.5732 42.2466 42.1065 45.0867 35.1592 48.1016C28.2118 51.1165 22.4005 53.6944 22.3132 53.8255C22.1821 53.9566 22.1821 54.1313 22.3132 54.2624C22.4442 54.3935 25.4591 53.2575 29.042 51.6845C40.1403 46.9218 50.452 42.3777 51.2822 41.9407C52.7241 41.1105 51.2822 41.0232 49.5345 41.8097Z" fill="#F2EFE7"/>
<path d="M31.2261 51.8155C31.7067 52.2961 36.8626 54.4808 37.518 54.4808C38.6977 54.4808 37.6928 53.607 35.2459 52.5583C32.5369 51.4223 30.3959 51.029 31.2261 51.8155Z" fill="#F2EFE7"/>
</svg>
