<svg width="193" height="224" viewBox="0 0 193 224" fill="none" xmlns="http://www.w3.org/2000/svg">
<path d="M5.663 223.275C2.536 223.275 0 220.739 0 217.612V187.77C0 187.623 0.00500211 187.476 0.0170021 187.33C0.00500211 187.184 0 187.037 0 186.89V121.536C0 91.308 18.297 63.567 47.969 48.454C49.689 36.797 57.432 11.163 91.976 1.244C92.594 0.791001 93.311 0.459002 94.097 0.285002L94.78 0.134001C95.183 0.0450008 95.593 0 96.004 0C96.057 0 96.271 0 96.325 0C96.644 0 96.964 0.0270013 97.279 0.0810013L98.163 0.232C99.053 0.384 99.864 0.739001 100.553 1.244C135.097 11.163 142.84 36.797 144.56 48.454C174.233 63.567 192.529 91.308 192.529 121.536V188.817C192.529 188.888 192.528 188.959 192.525 189.029C192.528 189.1 192.529 189.17 192.529 189.241V217.611C192.529 220.738 189.994 223.274 186.866 223.274L5.663 223.275Z" fill="#CAE6EA"/>
<path d="M186.207 121.697V188.978L159.538 208.496L26.2847 206.327L5.88867 187.05V121.696C5.88867 91.722 25.0567 65.674 53.2847 52.338C54.0867 42.164 59.7027 15.729 95.2067 6.35701V6.234C95.6507 6.13 95.8867 6.08301 95.8867 6.08301C95.9437 6.09301 95.9907 6.111 96.0467 6.13C96.1037 6.111 96.1507 6.09201 96.2067 6.08301C96.2067 6.08301 96.4427 6.13 96.8867 6.234V6.35701C132.392 15.729 138.007 42.164 138.81 52.338C167.039 65.674 186.207 91.722 186.207 121.697Z" fill="#48A6A7"/>
<path d="M186.207 189.403V217.773H5.88867V187.931C8.32367 177.625 11.5037 167.319 15.4867 160.76C22.4427 149.312 36.6457 145.518 45.5647 144.272C50.2177 143.611 53.4357 143.649 53.4357 143.649L85.2977 144.621L108.354 145.329L145.199 146.452C145.199 146.452 145.652 146.669 146.473 147.094C150.701 149.331 164.735 157.419 177.24 172.265C181.394 177.2 184.253 183.25 186.207 189.403Z" fill="#341C17"/>
<path d="M70.5098 91.7811L73.6468 128.26C73.6468 128.26 79.7718 136.721 96.3718 139.283C112.961 141.846 114.615 133.115 114.615 133.115L113.252 117.263L84.0648 99.8621L70.5098 91.7811Z" fill="#E8D3C5"/>
<path d="M82.1098 113.288C85.2298 119.966 90.7048 125.502 97.3398 128.71C102.653 131.28 108.611 131.929 114.451 131.216L113.251 117.263L84.0638 99.8621C82.4938 101.112 81.2498 102.756 80.7348 104.677C79.9618 107.547 80.8578 110.603 82.1098 113.288Z" fill="#341C17"/>
<path d="M63.4809 72.229C62.8699 55.542 75.1319 40.76 91.6479 38.298C110.732 35.454 127.973 49.292 129.601 68.221C129.672 69.041 129.701 69.855 129.712 70.665C130.618 77.169 132.291 94.377 126.59 106.98C124.508 111.583 117.981 117.693 112.487 121.96C110.042 123.859 106.898 124.595 103.87 123.948C96.1129 122.292 81.2919 118.129 76.6599 109.82C71.4749 100.52 68.3088 90.123 67.3068 86.564C65.0388 82.289 63.6719 77.434 63.4809 72.229Z" fill="#E8D3C5"/>
<path d="M105.611 98.096C108.328 100.282 112.348 100.698 115.454 99.114" stroke="#341C17" stroke-width="0.8815" stroke-miterlimit="10" stroke-linecap="round" stroke-linejoin="round"/>
<path d="M111.996 95.5749C111.728 95.5899 111.469 95.4319 111.368 95.1689C111.241 94.8409 111.405 94.4729 111.733 94.3469C113.606 93.6239 114.546 91.4809 114.648 89.6789C114.76 87.6689 114.124 85.7239 113.344 83.5699C111.928 79.6619 110.37 75.7429 108.713 71.9219C108.573 71.5999 108.721 71.2249 109.043 71.0849C109.365 70.9439 109.74 71.0939 109.88 71.4149C111.547 75.2599 113.116 79.2039 114.54 83.1359C115.338 85.3389 116.045 87.5029 115.919 89.7479C115.795 91.9599 114.594 94.6059 112.192 95.5329C112.126 95.5579 112.06 95.5709 111.996 95.5749Z" fill="#341C17"/>
<path d="M119.9 83.438C120.102 85.059 121.58 86.209 123.201 86.006C124.822 85.804 125.972 84.325 125.769 82.705C125.567 81.084 124.089 79.934 122.468 80.137C120.847 80.339 119.697 81.817 119.9 83.438Z" fill="#341C17"/>
<path d="M92.6892 85.778C92.8912 87.399 94.3692 88.549 95.9902 88.346C97.6112 88.144 98.7612 86.666 98.5582 85.045C98.3562 83.424 96.8772 82.274 95.2572 82.477C93.6362 82.679 92.4862 84.157 92.6892 85.778Z" fill="#341C17"/>
<path d="M59.0757 86.917C56.8607 89.78 56.9097 94.307 58.3487 97.748C60.7517 103.492 70.5117 109.47 75.5457 103.243C77.7217 100.551 78.8497 96.342 77.9617 92.973C76.4347 87.182 68.4167 82.889 62.7257 84.497C61.1347 84.947 59.9347 85.807 59.0757 86.917Z" fill="#E8D3C5"/>
<path d="M71.0973 101.413C71.1263 101.41 71.1563 101.406 71.1853 101.399C71.4993 101.323 71.6923 101.007 71.6163 100.693C70.8243 97.423 69.3793 94.616 67.4393 92.573C65.1413 90.154 62.1073 88.772 59.1133 88.781C58.7953 88.786 58.5303 89.045 58.5313 89.368C58.5323 89.691 58.7953 89.952 59.1183 89.95C61.7903 89.941 64.5153 91.191 66.5933 93.378C68.3923 95.273 69.7373 97.8981 70.4813 100.968C70.5483 101.253 70.8143 101.438 71.0973 101.413Z" fill="#341C17"/>
<path d="M62.4693 101.032C62.4933 101.03 62.5173 101.027 62.5413 101.021C62.7423 100.978 62.9063 100.833 62.9723 100.639C63.0863 100.305 62.9763 99.9331 62.6983 99.7141C62.6373 99.6661 62.5713 99.6331 62.5013 99.6121C61.6523 98.3271 61.6543 96.4721 62.5723 95.2301C63.6013 93.8381 65.7053 93.3211 67.2623 94.0791C67.5523 94.2211 67.9033 94.1001 68.0433 93.8091C68.1843 93.5191 68.0633 93.1691 67.7733 93.0281C65.7013 92.0181 63.0033 92.6791 61.6313 94.5351C60.2613 96.3891 60.4183 99.1621 61.9913 100.849C62.1143 100.98 62.2913 101.047 62.4693 101.032Z" fill="#341C17"/>
<path d="M87.6914 78.598C89.5214 75.722 93.2704 74.216 96.5824 75.026" stroke="#341C17" stroke-width="1.763" stroke-miterlimit="10" stroke-linecap="round" stroke-linejoin="round"/>
<path d="M119.328 72.959C121.911 71.998 124.926 72.284 127.282 73.714" stroke="#341C17" stroke-width="1.763" stroke-miterlimit="10" stroke-linecap="round" stroke-linejoin="round"/>
<path d="M75.6035 71.7171C75.6035 71.7171 91.7015 53.0531 127.629 58.8861C127.629 58.8861 118.297 43.4881 102.2 39.9891C102.2 39.9891 83.7685 37.6561 75.6035 71.7171Z" fill="#F1DED9"/>
<path d="M102.197 39.989C102.197 39.989 77.7011 52.12 75.6011 78.016C73.5011 103.912 77.2341 118.61 84.4661 126.075C84.4661 126.075 56.2371 120.243 50.1711 103.912C44.1051 87.581 47.8381 58.186 63.4691 44.421C79.1001 30.656 94.0311 28.09 104.762 29.957C115.494 31.823 128.792 39.289 134.857 60.052C140.923 80.815 139.756 111.144 129.958 117.21C120.159 123.276 113.627 127.242 113.627 127.242L113.394 121.41C113.394 121.41 128.792 113.478 130.658 90.848C132.736 65.668 125.76 47.687 102.197 39.989Z" fill="#1A5A81"/>
<path d="M61.6336 94.5339C61.6336 94.5339 72.1036 115.343 88.4346 121.176C104.766 127.008 107.565 127.008 117.13 121.176C126.695 115.344 130.195 113.477 130.195 113.477C130.195 113.477 134.161 119.076 133.694 130.508C133.694 130.508 141.626 132.608 143.726 138.44C145.826 144.272 149.558 153.138 144.193 158.737C144.193 158.737 158.191 172.501 142.093 186.966C125.995 201.431 115.73 205.63 96.5996 193.732C77.4696 181.834 49.0066 146.606 49.0066 146.606C49.0066 146.606 42.9406 145.44 43.1746 135.408C43.4076 125.376 48.3066 120.244 54.8396 119.544C54.8396 119.544 46.4406 107.646 51.3406 99.2469C56.2396 90.8469 61.6336 94.5339 61.6336 94.5339Z" fill="#1A5A81"/>
<path d="M50.4062 105.545C50.4062 105.545 68.1363 124.675 89.3663 127.942C110.596 131.208 119.928 125.609 125.76 107.878" stroke="#341C17" stroke-width="0.8815" stroke-miterlimit="10" stroke-linecap="round" stroke-linejoin="round"/>
<path d="M60.4371 61.452C60.4371 61.452 52.5051 113.011 86.1001 127.242" stroke="#341C17" stroke-width="0.8815" stroke-miterlimit="10" stroke-linecap="round" stroke-linejoin="round"/>
<path d="M49.8618 105.078C49.8618 105.078 48.5398 118.376 65.5708 128.408C82.6018 138.44 108.498 143.339 122.651 122.498" stroke="#341C17" stroke-width="0.9137" stroke-miterlimit="10" stroke-linecap="round" stroke-linejoin="round"/>
<path d="M57.9492 123.12C57.9492 123.12 76.5352 151.038 104.064 146.139C131.593 141.24 133.226 135.407 133.693 130.508C134.16 125.609 131.827 116.277 131.827 116.277" stroke="#341C17" stroke-width="0.9137" stroke-miterlimit="10" stroke-linecap="round" stroke-linejoin="round"/>
<path d="M117.674 122.653C117.674 122.653 127.161 123.431 132.605 114.41" stroke="#341C17" stroke-width="0.9137" stroke-miterlimit="10" stroke-linecap="round" stroke-linejoin="round"/>
<path d="M45.6621 144.428C45.6621 144.428 57.1711 154.537 74.9021 160.292C92.6331 166.047 134.159 167.757 144.113 159.359" stroke="#341C17" stroke-width="0.9137" stroke-miterlimit="10" stroke-linecap="round" stroke-linejoin="round"/>
<path d="M78.3223 161.536C78.3223 161.536 109.428 173.668 122.493 173.201C135.558 172.734 137.113 167.757 137.113 167.757" stroke="#341C17" stroke-width="0.9137" stroke-miterlimit="10" stroke-linecap="round" stroke-linejoin="round"/>
<path d="M166.388 94.7919C162.457 93.4459 158.943 87.8359 158.171 82.8779C157.86 85.5499 157.428 88.2419 156.357 90.7089C155.286 93.1759 153.507 95.4239 151.082 96.5859C155.414 97.9989 158.959 101.866 159.909 106.323C160.274 104.309 160.815 102.175 161.608 100.288C162.401 98.4009 164.71 95.9639 166.388 94.7919Z" fill="#E2A72B"/>
<path d="M171.207 186.037C167.276 184.691 163.762 179.081 162.989 174.123C162.678 176.795 162.246 179.487 161.175 181.954C160.104 184.421 158.325 186.669 155.9 187.831C160.232 189.244 163.777 193.111 164.727 197.568C165.092 195.554 165.633 193.42 166.427 191.533C167.219 189.646 169.528 187.209 171.207 186.037Z" fill="#E2A72B"/>
<path d="M38.8372 100.575C34.9062 99.229 31.3923 93.6189 30.6203 88.6609C30.3093 91.3329 29.8773 94.026 28.8063 96.493C27.7353 98.96 25.9562 101.208 23.5312 102.37C27.8632 103.784 31.4083 107.65 32.3583 112.107C32.7233 110.093 33.2643 107.959 34.0583 106.072C34.8503 104.184 37.1593 101.747 38.8372 100.575Z" fill="#E2A72B"/>
</svg>
